<?xml version="1.0" standalone="no"?>
<!DOCTYPE svg PUBLIC "-//W3C//DTD SVG 1.1//EN" "http://www.w3.org/Graphics/SVG/1.1/DTD/svg11.dtd" >
<svg xmlns="http://www.w3.org/2000/svg">
<metadata>Generated by IcoMoon</metadata>
<defs>
<font id="icomoon" horiz-adv-x="1024">
<font-face units-per-em="1024" ascent="960" descent="-64" />
<missing-glyph horiz-adv-x="1024" />
<glyph unicode="&#x20;" horiz-adv-x="512" d="" />
<glyph unicode="&#xe900;" glyph-name="campus-corporate" d="M245.248 619.584l245.248-98.112v-32.672h-32.704c0-8.96-7.936-16.352-17.632-16.352h-389.824c-9.696 0-17.632 7.392-17.632 16.352h-32.704v32.672l245.248 98.112zM65.376 456.096h65.408v-196.16h32.704v196.16h65.376v-196.16h32.672v196.16h65.376v-196.16h32.736v196.16h65.376v-196.16h15.072c9.696 0 17.6-7.36 17.6-16.448v-16.256h-424.992v16.256c0 9.056 7.936 16.448 17.632 16.448h15.072v196.16h-0.032zM472.864 210.88c9.696 0 17.632-7.424 17.632-16.384v-32.736h-490.496v32.736c0 8.928 7.936 16.384 17.632 16.384h455.232zM1003.296 742.24c11.328 0 20.704-9.376 20.704-20.736v-539.008c0-11.328-9.376-20.736-20.704-20.736h-414.624c-11.328 0-20.736 9.44-20.736 20.736v539.008c0 11.328 9.408 20.736 20.736 20.736h414.624zM733.76 648.96v-20.736c0-5.824 4.544-10.336 10.4-10.336h20.704c5.856 0 10.368 4.544 10.368 10.336v20.736c0 5.856-4.544 10.368-10.368 10.368h-20.704c-5.888 0-10.4-4.544-10.4-10.368zM733.76 566.048v-20.736c0-5.856 4.544-10.368 10.4-10.368h20.704c5.856 0 10.368 4.544 10.368 10.368v20.736c0 5.824-4.544 10.336-10.368 10.336h-20.704c-5.888 0-10.4-4.512-10.4-10.336zM733.76 483.104v-20.736c0-5.824 4.544-10.368 10.4-10.368h20.704c5.856 0 10.368 4.544 10.368 10.368v20.736c0 5.824-4.544 10.336-10.368 10.336h-20.704c-5.888 0-10.4-4.512-10.4-10.336zM733.76 400.192v-20.736c0-5.76 4.544-10.304 10.4-10.304h20.704c5.856 0 10.368 4.576 10.368 10.304v20.736c0 5.824-4.544 10.368-10.368 10.368h-20.704c-5.888 0-10.4-4.576-10.4-10.368zM692.32 296.576v20.672c0 5.824-4.576 10.368-10.336 10.368h-20.704c-5.888 0-10.4-4.576-10.4-10.368v-20.672c0-5.824 4.544-10.368 10.4-10.368h20.704c5.76-0.032 10.336 4.544 10.336 10.368zM692.32 379.424v20.736c0 5.824-4.576 10.368-10.336 10.368h-20.704c-5.888 0-10.4-4.576-10.4-10.368v-20.736c0-5.76 4.544-10.304 10.4-10.304h20.704c5.76 0 10.336 4.576 10.336 10.304zM692.32 462.368v20.736c0 5.824-4.576 10.336-10.336 10.336h-20.704c-5.888 0-10.4-4.544-10.4-10.336v-20.736c0-5.824 4.544-10.368 10.4-10.368h20.704c5.76 0 10.336 4.544 10.336 10.368zM692.32 545.312v20.736c0 5.824-4.576 10.336-10.336 10.336h-20.704c-5.888 0-10.4-4.544-10.4-10.336v-20.736c0-5.856 4.544-10.368 10.4-10.368h20.704c5.76 0 10.336 4.512 10.336 10.368zM692.32 628.224v20.736c0 5.856-4.576 10.368-10.336 10.368h-20.704c-5.888 0-10.4-4.544-10.4-10.368v-20.736c0-5.824 4.544-10.336 10.4-10.336h20.704c5.76 0 10.336 4.512 10.336 10.336zM858.176 213.632v62.176c0 5.824-4.544 10.368-10.368 10.368h-103.616c-5.856 0-10.368-4.576-10.368-10.368v-62.176c0-5.888 4.544-10.368 10.368-10.368h103.616c5.856 0 10.368 4.48 10.368 10.368zM858.176 379.424v20.736c0 5.824-4.544 10.368-10.368 10.368h-20.704c-5.856 0-10.368-4.576-10.368-10.368v-20.736c0-5.76 4.544-10.304 10.368-10.304h20.704c5.856 0 10.368 4.576 10.368 10.304zM858.176 462.368v20.736c0 5.824-4.544 10.336-10.368 10.336h-20.704c-5.856 0-10.368-4.544-10.368-10.336v-20.736c0-5.824 4.544-10.368 10.368-10.368h20.704c5.856 0 10.368 4.544 10.368 10.368zM858.176 545.312v20.736c0 5.824-4.544 10.336-10.368 10.336h-20.704c-5.856 0-10.368-4.544-10.368-10.336v-20.736c0-5.856 4.544-10.368 10.368-10.368h20.704c5.856 0 10.368 4.512 10.368 10.368zM858.176 628.224v20.736c0 5.856-4.544 10.368-10.368 10.368h-20.704c-5.856 0-10.368-4.544-10.368-10.368v-20.736c0-5.824 4.544-10.336 10.368-10.336h20.704c5.856 0 10.368 4.512 10.368 10.336zM941.056 296.576v20.672c0 5.824-4.544 10.368-10.336 10.368h-20.704c-5.824 0-10.368-4.576-10.368-10.368v-20.672c0-5.824 4.576-10.368 10.368-10.368h20.704c5.824-0.032 10.336 4.544 10.336 10.368zM941.056 379.424v20.736c0 5.824-4.544 10.368-10.336 10.368h-20.704c-5.824 0-10.368-4.576-10.368-10.368v-20.736c0-5.76 4.576-10.304 10.368-10.304h20.704c5.824 0 10.336 4.576 10.336 10.304zM941.056 462.368v20.736c0 5.824-4.544 10.336-10.336 10.336h-20.704c-5.824 0-10.368-4.544-10.368-10.336v-20.736c0-5.824 4.576-10.368 10.368-10.368h20.704c5.824 0 10.336 4.544 10.336 10.368zM941.056 545.312v20.736c0 5.824-4.544 10.336-10.336 10.336h-20.704c-5.824 0-10.368-4.544-10.368-10.336v-20.736c0-5.856 4.576-10.368 10.368-10.368h20.704c5.824 0 10.336 4.512 10.336 10.368zM941.056 628.224v20.736c0 5.856-4.544 10.368-10.336 10.368h-20.704c-5.824 0-10.368-4.544-10.368-10.368v-20.736c0-5.824 4.576-10.336 10.368-10.336h20.704c5.824 0 10.336 4.512 10.336 10.336z" />
<glyph unicode="&#xe901;" glyph-name="salesmanagement" horiz-adv-x="1184" d="M1170.24 82.24v-73.12h-1170.24v877.728h73.152v-804.608h1097.088zM1097.152 795.424v-248.576c0-16-19.392-24.576-31.392-12.576l-69.184 69.152-361.728-361.728c-7.392-7.424-18.848-7.424-26.272 0l-133.152 133.152-237.728-237.728-109.728 109.728 334.272 334.272c7.424 7.424 18.848 7.424 26.272 0l133.152-133.152 265.152 265.152-69.152 69.152c-12 12-3.392 31.424 12.608 31.424h248.576c10.272 0 18.272-8 18.272-18.272h0.032zM681.472 736.128c0 35.264-29.12 63.968-64.896 63.968-35.68 0-64.768-28.736-64.768-63.968 0-35.2 29.12-63.904 64.768-63.904 35.776 0 64.896 28.704 64.896 63.904zM811.168 763.328v-55.424c0-3.744-3.040-8.256-7.104-8.992l-46.88-7.008c-2.784-7.968-5.824-15.456-9.856-22.688 8.608-12.256 17.728-23.264 27.104-34.464 1.504-1.76 2.528-4 2.528-6.272 0-2.208-0.736-4-2.304-5.728-6.048-8-40.256-44.704-48.864-44.704-2.272 0-4.544 0.992-6.56 2.208l-34.944 27.008c-7.36-3.744-15.2-6.976-23.072-9.504-1.792-15.232-3.328-31.456-7.36-46.464-0.992-4-4.576-6.976-9.088-6.976h-56.256c-4.544 0-8.608 3.264-9.12 7.52l-7.104 45.952c-7.872 2.528-15.424 5.504-22.784 9.248l-35.712-26.688c-1.792-1.536-4.064-2.24-6.336-2.24s-4.544 0.992-6.304 2.72c-13.44 12-31.136 27.456-41.792 41.984-1.248 1.76-1.76 3.744-1.76 5.728 0 2.272 0.736 4.032 2.016 5.792 8.64 11.488 18.016 22.464 26.592 34.208-4.32 7.968-7.84 16.224-10.4 24.736l-46.336 6.72c-4.288 0.736-7.328 4.736-7.328 8.992v55.424c0 3.712 3.040 8.224 6.848 8.992l47.136 6.976c2.496 7.968 5.792 15.488 9.856 23.008-8.64 11.968-17.76 23.2-27.136 34.464-1.504 1.728-2.528 3.712-2.528 5.984 0 2.24 1.024 4 2.272 5.76 6.080 8.256 40.256 44.704 48.896 44.704 2.272 0 4.576-0.992 6.56-2.496l34.976-26.752c7.36 3.776 15.2 7.008 23.040 9.504 1.76 15.264 3.296 31.488 7.328 46.464 0.992 4 4.512 6.976 9.088 6.976h56.256c4.576 0 8.64-3.232 9.12-7.488l7.072-45.952c7.904-2.528 15.488-5.504 22.848-9.28l35.968 26.72c1.504 1.504 3.776 2.24 6.048 2.24 2.304 0 4.544-0.992 6.304-2.496 13.472-12.224 31.2-27.712 41.856-42.464 1.216-1.504 1.76-3.488 1.76-5.504 0-2.24-0.768-4-2.016-5.728-8.608-11.488-17.984-22.496-26.56-34.208 4.32-8 7.808-16.224 10.336-24.512l46.368-6.976c4.288-0.736 7.328-4.736 7.328-9.024v0z" />
<glyph unicode="&#xe902;" glyph-name="comm_icon" d="M483.424 121.984c0-55.136-36.256-100.032-80.48-100.032h-322.496c-44.16 0.032-80.448 44.928-80.448 100.032 0 99.328 24.576 214.112 123.488 214.112 30.592-29.824 72.128-48.352 118.208-48.352 46.048 0 87.584 18.528 118.176 48.352 98.944 0 123.456-114.816 123.456-214.112h0.096zM386.72 456.96c0-80.077-64.915-144.992-144.992-144.992s-144.992 64.915-144.992 144.992c0 80.077 64.915 144.992 144.992 144.992s144.992-64.915 144.992-144.992zM610.592 759.488c0-70.304-78.208-127.232-174.848-127.232-15.136 0-29.792 1.504-43.712 4-20.64-14.656-44-25.344-69.088-31.84-6.688-1.728-13.92-2.944-21.344-3.968h-0.768c-3.712 0-7.2 2.944-7.936 7.232v0c-0.992 4.672 2.208 7.68 4.96 10.912 9.696 10.976 20.608 20.608 29.056 41.28-40.256 23.36-66.080 59.36-66.080 99.616 0 70.336 78.272 127.232 174.88 127.232 96.672 0 174.88-56.896 174.88-127.232v0zM696.224 722.336c1.984-40.448-22.112-77.408-61.216-102.656 9.44-20.224 20.768-29.344 31.008-39.808 2.816-3.072 6.24-5.952 5.472-10.656v0c-0.768-4.512-4.288-7.904-8.288-7.616-7.52 0.64-14.784 1.504-21.6 2.944-25.376 5.28-49.184 14.784-70.496 28.48-13.76-3.168-28.416-5.376-43.488-6.080-44.928-2.144-86.72 8.288-118.688 27.168 7.232-0.16 14.688-0.288 21.888 0.064 53.344 2.56 102.976 20.352 140.128 49.984 39.968 32.256 60.864 74.304 58.784 118.72-0.672 12.896-3.264 25.44-7.552 37.44 43.008-21.088 72-56.544 74.048-97.984v0zM1024 121.984c0-55.136-36.256-100.032-80.48-100.032h-322.496c-44.16 0-80.48 44.896-80.48 100.032 0 99.328 24.576 214.112 123.456 214.112 30.56-29.824 72.16-48.352 118.176-48.352 46.080 0 87.648 18.528 118.208 48.352 98.976 0 123.456-114.816 123.456-214.112h0.16zM927.296 456.96c0-80.077-64.915-144.992-144.992-144.992s-144.992 64.915-144.992 144.992c0 80.077 64.915 144.992 144.992 144.992s144.992-64.915 144.992-144.992z" />
<glyph unicode="&#xe903;" d="M908.416 799.84h-736.16c-17.632 0-31.904 14.304-31.904 32s14.272 31.968 31.904 31.968h337.152v32c0 17.664 14.272 31.968 31.936 31.968 17.632 0 31.872-14.304 31.872-31.968v-32h335.2c17.696 0 31.936-14.336 31.936-31.968 0-17.728-14.272-32-31.936-32z" />
<glyph unicode="&#xe904;" d="M172.256 767.872h736.16v-479.808h-736.16v479.808z" />
<glyph unicode="&#xe905;" d="M453.344 160.128h72.032v159.936h31.904v-159.936h70.944l-70.944 159.936h63.872l127.616-287.872h-63.808l-42.56 96h-85.12v-159.936h-31.904v159.936h-86.432l-43.232-96h-63.84l129.664 287.872h63.84z" />
<glyph unicode="&#xe906;" d="M557.28 288.064v0 0z" />
<glyph unicode="&#xe907;" d="M525.376 288.064v0 0z" />
<glyph unicode="&#xe908;" d="M582.016 414.304v-60.512h-30.24v60.512h30.24zM627.36 474.848v-121.024h-30.24v121.024h30.24zM748.448 338.656v-15.104h-242.112v181.536h15.168v-166.464l226.944 0.032zM672.8 444.608v-90.784h-30.24v90.784h30.24zM718.176 489.984v-136.192h-30.24v136.192h30.24z" />
<glyph unicode="&#xe909;" d="M410.816 452.352v-165.6c0-21.056-13.568-38.176-30.24-38.176s-30.24 17.12-30.24 38.176v140.096h-20.16v-362.976c0-24.736-15.744-44.64-35.264-44.64s-35.296 19.872-35.296 44.64v184.672h-20.128v-184.672c0-24.736-15.744-44.64-35.296-44.64-19.52 0-35.264 19.872-35.264 44.64v362.976h-20.128v-140.096c0-21.056-13.536-38.176-30.208-38.176s-30.24 17.12-30.24 38.176v165.6c0 42.176 27.104 76.448 60.48 76.448h201.536c33.376 0 60.48-34.24 60.448-76.448v0zM320.096 630.656c0-49.344-31.456-89.152-70.528-89.152-39.040 0-70.528 39.808-70.528 89.152s31.488 89.184 70.528 89.184c39.072 0 70.528-39.808 70.528-89.184z" />
<glyph unicode="&#xe90a;" d="M294.912 7.264c-21.408 0-39.552 17.152-45.344 40.608-5.792-23.424-23.936-40.608-45.344-40.608-26.048 0-47.264 25.408-47.264 56.64v201.984c-6.688-17.28-21.376-29.28-38.368-29.28-23.296 0-42.24 22.496-42.24 50.176v165.6c0 48.768 32.512 88.448 72.48 88.448h62.88c-26.528 16.832-44.672 50.816-44.672 89.888 0 55.776 37.024 101.184 82.528 101.184s82.528-45.376 82.528-101.184c0-39.072-18.144-73.024-44.672-89.888h62.944c39.968 0 72.48-39.68 72.48-88.448l-0.032-165.6c0-27.68-18.944-50.176-42.24-50.176-17.024 0-31.712 12-38.4 29.28v-201.984c0-31.776-20.768-56.64-47.264-56.64zM227.488 260.576h44.128v-196.672c0-18.016 10.432-32.64 23.296-32.64 12.832 0 23.264 14.624 23.264 32.64v374.944h44.16v-152.096c0-14.176 8.352-26.176 18.24-26.176s18.24 12 18.24 26.176v165.6c0 17.728-5.344 34.272-15.104 46.592-9.088 11.488-20.928 17.856-33.344 17.856h-201.536c-26.72 0-48.48-28.896-48.48-64.448v-165.6c0-14.176 8.352-26.176 18.24-26.176s18.208 12 18.208 26.176v152.096h44.16v-374.976c0-18.016 10.432-32.64 23.264-32.64s23.296 14.624 23.296 32.64v196.704zM249.568 707.84c-32.288 0-58.528-34.624-58.528-77.184s26.24-77.152 58.528-77.152 58.528 34.624 58.528 77.152-26.24 77.184-58.528 77.184z" />
<glyph unicode="&#xe90b;" d="M885.664 543.68v187.232c0 3.84-3.68 7.2-7.872 7.2h-363.584c-4.192 0-7.904-3.36-7.904-7.2v-187.232c0-3.872 3.712-7.232 7.904-7.232h363.552c4.256 0 7.904 3.392 7.904 7.232z" />
<glyph unicode="&#xe90c;" d="M558.4 578.72v-16.768c0-4.416-3.904-8.352-8.352-8.352h-16.736c-4.48 0-8.384 3.936-8.384 8.352v16.768c0 4.448 3.936 8.352 8.384 8.352h16.736c4.448 0 8.352-3.936 8.352-8.352z" />
<glyph unicode="&#xe90d;" d="M558.4 645.664v-16.736c0-4.448-3.904-8.352-8.352-8.352h-16.736c-4.48 0-8.384 3.904-8.384 8.352v16.736c0 4.448 3.936 8.352 8.384 8.352h16.736c4.448 0 8.352-3.904 8.352-8.352z" />
<glyph unicode="&#xe90e;" d="M859.776 578.72v-16.768c0-4.416-3.968-8.352-8.416-8.352h-251.104c-4.48 0-8.384 3.936-8.384 8.352v16.768c0 4.448 3.904 8.352 8.384 8.352h251.104c4.48 0 8.416-3.936 8.416-8.352z" />
<glyph unicode="&#xe90f;" d="M859.776 645.664v-16.736c0-4.448-3.968-8.352-8.416-8.352h-251.104c-4.48 0-8.384 3.904-8.384 8.352v16.736c0 4.448 3.904 8.352 8.384 8.352h251.104c4.48 0 8.416-3.904 8.416-8.352z" />
<glyph unicode="&#xe910;" d="M859.776 712.64v-16.736c0-4.448-3.968-8.352-8.416-8.352h-251.104c-4.48 0-8.384 3.936-8.384 8.352v16.736c0 4.448 3.904 8.352 8.384 8.352h251.104c4.48 0 8.416-3.936 8.416-8.352z" />
<glyph unicode="&#xe911;" d="M536.864 696.032c-0.48 0.224-0.736 0.704-0.736 1.248v13.952c0 0.512 0.256 0.992 0.736 1.248 0.448 0.224 1.024 0.192 1.44-0.096l9.76-6.976c0.384-0.256 0.608-0.672 0.608-1.152 0-0.448-0.224-0.864-0.608-1.12l-9.76-6.976c-0.416-0.32-0.992-0.352-1.44-0.128v0zM531.232 693.088h20.896c0.384 0 0.672 0.352 0.672 0.704v20.928c0 0.352-0.32 0.704-0.672 0.704h-20.896c-0.384 0-0.704-0.352-0.704-0.704v-20.928c0-0.352 0.32-0.704 0.704-0.704zM552.128 687.52h-20.896c-3.456 0-6.272 2.816-6.272 6.272v20.928c0 3.456 2.816 6.272 6.272 6.272h20.896c3.456 0 6.272-2.816 6.272-6.272v-20.928c0-3.456-2.816-6.272-6.272-6.272z" />
<glyph unicode="&#xe912;" glyph-name="ManagerialEffectiveness" d="M406.328 417.453v-69.602c0-14.008 11.398-25.406 25.406-25.406h163.149c14.008 0 25.406 11.398 25.406 25.406v69.602c0 33.227-21.656 61.469-51.586 71.414 9.906 12.234 15.852 27.797 15.852 44.727 0 39.281-31.961 71.242-71.242 71.242-39.289 0-71.25-31.961-71.25-71.242 0-16.93 5.945-32.492 15.852-44.727-29.93-9.945-51.586-38.195-51.586-71.414zM513.305 574.484c22.555 0 40.898-18.344 40.898-40.891 0-22.453-18.234-40.898-40.93-40.898-22.531 0.023-40.859 18.359-40.859 40.898 0 22.547 18.344 40.891 40.891 40.891zM436.672 417.453c0 24.758 20.148 44.898 44.906 44.898h63.461c24.758 0 44.898-20.141 44.898-44.898v-64.656h-15.836v66.805c0 8.383-6.797 15.18-15.18 15.18s-15.172-6.797-15.172-15.18v-66.805h-60.891v66.805c0 8.383-6.789 15.18-15.172 15.18s-15.172-6.797-15.172-15.18v-66.805h-15.844zM406.328 784.43v-47.016c0-14.008 11.398-25.406 25.406-25.406h163.149c14.008 0 25.406 11.398 25.406 25.406v47.016c0 33.219-21.656 61.469-51.586 71.414 9.898 12.234 15.852 27.797 15.852 44.727 0 22.117-10.031 42.617-27.516 56.227-6.617 5.148-16.148 3.969-21.297-2.648s-3.961-16.148 2.648-21.297c10.055-7.82 15.813-19.594 15.813-32.281 0-22.516-18.297-40.898-40.914-40.898-22.539 0.008-40.875 18.352-40.875 40.898 0 11.961 5.227 23.289 14.352 31.086 6.367 5.445 7.117 15.023 1.672 21.398-5.445 6.367-15.023 7.117-21.398 1.672-15.867-13.57-24.977-33.313-24.977-54.156 0-16.93 5.945-32.492 15.852-44.734-29.93-9.938-51.586-38.188-51.586-71.406zM436.672 784.43c0 24.758 20.148 44.898 44.906 44.898 1.008 0 32.719 0 31.727 0h31.734c24.758 0 44.898-20.141 44.898-44.898v-42.070h-15.836v44.227c0 8.375-6.789 15.172-15.172 15.172s-15.18-6.797-15.18-15.172v-44.227h-60.891v44.227c0 8.375-6.789 15.172-15.172 15.172s-15.172-6.797-15.172-15.172v-44.227h-15.844zM744.656 583.343v-47.008c0-14.008 11.398-25.406 25.406-25.406h163.149c14.008 0 25.406 11.398 25.406 25.406v47.008c0 33.227-21.648 61.469-51.578 71.414 9.898 12.242 15.844 27.797 15.844 44.727 0 39.289-31.961 71.242-71.242 71.242s-71.242-31.961-71.242-71.242c0-16.93 5.945-32.484 15.844-44.727-29.93-9.945-51.586-38.188-51.586-71.414zM851.641 740.383c22.547 0 40.891-18.344 40.891-40.898 0-22.547-18.344-40.891-40.891-40.891-22.555 0-40.898 18.344-40.898 40.891 0 22.555 18.344 40.898 40.898 40.898zM775.008 583.343c0 24.758 20.141 44.898 44.898 44.898h63.461c24.758 0 44.898-20.141 44.898-44.898v-42.070h-15.836v44.227c0 8.375-6.789 15.172-15.172 15.172s-15.18-6.797-15.18-15.172v-44.227h-60.891v44.227c0 8.375-6.789 15.172-15.172 15.172s-15.172-6.797-15.172-15.172v-44.227h-15.844v42.070zM68 583.343v-47.008c0-14.008 11.398-25.406 25.406-25.406h163.149c14.008 0 25.406 11.398 25.406 25.406v47.008c0 33.227-21.656 61.469-51.586 71.414 9.898 12.242 15.852 27.797 15.852 44.727 0 39.289-31.961 71.242-71.242 71.242-39.289 0-71.25-31.961-71.25-71.242 0-16.93 5.945-32.492 15.852-44.727-29.938-9.945-51.586-38.188-51.586-71.414zM174.976 740.383c22.555 0 40.898-18.344 40.898-40.898 0-22.547-18.344-40.891-40.898-40.891-22.547 0-40.891 18.344-40.891 40.891 0 22.555 18.344 40.898 40.891 40.898zM98.343 583.343c0 24.758 20.148 44.898 44.906 44.898h63.461c24.758 0 44.898-20.141 44.898-44.898v-42.070h-15.836v44.227c0 8.375-6.797 15.172-15.18 15.172s-15.172-6.797-15.172-15.172v-44.227h-60.891v44.227c0 8.375-6.789 15.172-15.172 15.172s-15.172-6.797-15.172-15.172v-44.227h-15.844zM744.656 183.288c0-14.016 11.398-25.414 25.406-25.414h163.149c14.008 0 25.406 11.398 25.406 25.414v47.008c0 33.227-21.648 61.469-51.578 71.414 9.898 12.242 15.844 27.797 15.844 44.727 0 39.281-31.961 71.242-71.242 71.242s-71.242-31.961-71.242-71.242c0-16.93 5.945-32.484 15.844-44.727-29.93-9.945-51.586-38.188-51.586-71.414zM851.641 387.335c22.547 0 40.891-18.344 40.891-40.898 0-22.547-18.344-40.891-40.891-40.891-22.555 0-40.898 18.344-40.898 40.891 0 22.555 18.344 40.898 40.898 40.898zM775.008 230.296c0 24.758 20.141 44.898 44.898 44.898h63.461c24.758 0 44.898-20.141 44.898-44.898v-42.070h-15.836v44.227c0 8.383-6.789 15.172-15.172 15.172s-15.18-6.789-15.18-15.172v-44.227h-60.891v44.227c0 8.383-6.789 15.172-15.172 15.172s-15.172-6.789-15.172-15.172v-44.227h-15.844v42.070zM68 183.288c0-14.016 11.398-25.414 25.406-25.414h163.149c14.008 0 25.406 11.398 25.406 25.414v47.008c0 33.227-21.656 61.469-51.586 71.414 9.898 12.242 15.852 27.797 15.852 44.727 0 39.281-31.961 71.242-71.242 71.242-39.289 0-71.25-31.961-71.25-71.242 0-16.93 5.945-32.484 15.852-44.727-29.93-9.945-51.586-38.188-51.586-71.414zM174.976 387.335c22.555 0 40.898-18.344 40.898-40.898 0-22.547-18.344-40.891-40.898-40.891-22.547 0-40.891 18.344-40.891 40.891 0 22.555 18.344 40.898 40.891 40.898zM98.343 230.296c0 24.758 20.148 44.898 44.906 44.898h63.461c24.758 0 44.898-20.141 44.898-44.898v-42.070h-15.836v44.227c0 8.383-6.797 15.172-15.18 15.172s-15.172-6.789-15.172-15.172v-44.227h-60.891v44.227c0 8.383-6.789 15.172-15.172 15.172s-15.172-6.789-15.172-15.172v-44.227h-15.844zM296.633 328.812c4.195-7.266 13.477-9.742 20.727-5.555l27.445 15.844c34.078-49.859 89.688-83.899 153.328-88.594v-31.625c0-8.383 6.797-15.172 15.172-15.172 8.383 0 15.18 6.789 15.18 15.172v31.664c63.039 4.672 119.055 38.227 153.391 88.516l27.383-15.805c7.25-4.188 16.531-1.711 20.727 5.555 4.188 7.258 1.703 16.531-5.555 20.727l-27.336 15.781c7.563 15.703 13.211 32.57 16.586 50.352 1.563 8.234-3.844 16.172-12.078 17.734s-16.172-3.844-17.734-12.078c-15.336-80.82-86.461-141.039-170.563-141.039-95.734 0-173.617 77.883-173.617 173.617s77.883 173.625 173.617 173.625c63.25 0 119.789-34.203 150.156-86.414 0.070-0.133 0.133-0.266 0.211-0.398 0.047-0.078 0.102-0.148 0.148-0.227 9.453-16.414 16.359-34.563 20.047-54.008 1.563-8.234 9.5-13.648 17.734-12.078 8.234 1.555 13.641 9.5 12.078 17.734-3.367 17.781-9.023 34.648-16.586 50.352l27.336 15.781c7.258 4.195 9.742 13.477 5.555 20.727-4.188 7.266-13.477 9.742-20.727 5.555l-27.383-15.805c-34.336 50.289-90.352 83.844-153.391 88.516v31.664c0 8.375-6.789 15.172-15.172 15.172s-15.18-6.797-15.18-15.172v-31.617c-63.641-4.703-119.242-38.742-153.328-88.602l-27.445 15.844c-7.258 4.188-16.539 1.711-20.727-5.555-4.188-7.25-1.703-16.531 5.555-20.727l27.398-15.82c-26.961-55.703-27.055-121.195 0-177.102l-27.398-15.82c-7.258-4.188-9.75-13.469-5.555-20.719zM406.328 8.413v-47c0-14.016 11.398-25.414 25.406-25.414h163.149c14.008 0 25.406 11.398 25.406 25.414v47c0 33.227-21.656 61.477-51.586 71.422 9.898 12.234 15.852 27.797 15.852 44.727 0 39.281-31.961 71.242-71.242 71.242-39.289 0-71.25-31.961-71.25-71.242 0-16.93 5.945-32.492 15.852-44.727-29.93-9.945-51.586-38.195-51.586-71.422zM513.305 165.46c22.555 0 40.898-18.352 40.898-40.898 0-22.555-18.344-40.898-40.898-40.898-22.547 0-40.891 18.344-40.891 40.898 0 22.547 18.344 40.898 40.891 40.898zM436.672 8.413c0 24.758 20.148 44.906 44.906 44.906h63.461c24.758 0 44.898-20.148 44.898-44.906v-42.063h-15.836v44.219c0 8.383-6.797 15.18-15.18 15.18s-15.172-6.797-15.172-15.18v-44.219h-60.891v44.219c0 8.383-6.789 15.18-15.172 15.18s-15.172-6.797-15.172-15.18v-44.219h-15.844z" />
<glyph unicode="&#xe922;" glyph-name="program" d="M864 960h-768c-52.8 0-96-43.2-96-96v-832c0-52.8 43.2-96 96-96h768c52.8 0 96 43.2 96 96v832c0 52.8-43.2 96-96 96zM832 64h-704v768h704v-768zM256 512h448v-64h-448zM256 384h448v-64h-448zM256 256h448v-64h-448zM256 640h448v-64h-448z" />
<glyph unicode="&#xe948;" glyph-name="location2" d="M512 960c-176.732 0-320-143.268-320-320 0-320 320-704 320-704s320 384 320 704c0 176.732-143.27 320-320 320zM512 444c-108.248 0-196 87.752-196 196s87.752 196 196 196 196-87.752 196-196-87.752-196-196-196zM388 640c0 68.483 55.517 124 124 124s124-55.517 124-124c0-68.483-55.517-124-124-124s-124 55.517-124 124z" />
<glyph unicode="&#xe94e;" glyph-name="clock" d="M658.744 210.744l-210.744 210.746v282.51h128v-229.49l173.256-173.254zM512 960c-282.77 0-512-229.23-512-512s229.23-512 512-512 512 229.23 512 512-229.23 512-512 512zM512 64c-212.078 0-384 171.922-384 384s171.922 384 384 384c212.078 0 384-171.922 384-384s-171.922-384-384-384z" />
<glyph unicode="&#xe976;" glyph-name="user-tie" d="M320 768c0 106.039 85.961 192 192 192s192-85.961 192-192c0-106.039-85.961-192-192-192s-192 85.961-192 192zM768.078 512h-35.424l-199.104-404.244 74.45 372.244-96 96-96-96 74.45-372.244-199.102 404.244h-35.424c-127.924 0-127.924-85.986-127.924-192v-320h768v320c0 106.014 0 192-127.922 192z" />
<glyph unicode="&#xe995;" glyph-name="cogs" d="M363.722 237.948l41.298 57.816-45.254 45.256-57.818-41.296c-10.722 5.994-22.204 10.774-34.266 14.192l-11.682 70.084h-64l-11.68-70.086c-12.062-3.418-23.544-8.198-34.266-14.192l-57.818 41.298-45.256-45.256 41.298-57.816c-5.994-10.72-10.774-22.206-14.192-34.266l-70.086-11.682v-64l70.086-11.682c3.418-12.060 8.198-23.544 14.192-34.266l-41.298-57.816 45.254-45.256 57.818 41.296c10.722-5.994 22.204-10.774 34.266-14.192l11.682-70.084h64l11.68 70.086c12.062 3.418 23.544 8.198 34.266 14.192l57.818-41.296 45.254 45.256-41.298 57.816c5.994 10.72 10.774 22.206 14.192 34.266l70.088 11.68v64l-70.086 11.682c-3.418 12.060-8.198 23.544-14.192 34.266zM224 96c-35.348 0-64 28.654-64 64s28.652 64 64 64 64-28.654 64-64-28.652-64-64-64zM1024 576v64l-67.382 12.25c-1.242 8.046-2.832 15.978-4.724 23.79l57.558 37.1-24.492 59.128-66.944-14.468c-4.214 6.91-8.726 13.62-13.492 20.13l39.006 56.342-45.256 45.254-56.342-39.006c-6.512 4.766-13.22 9.276-20.13 13.494l14.468 66.944-59.128 24.494-37.1-57.558c-7.812 1.892-15.744 3.482-23.79 4.724l-12.252 67.382h-64l-12.252-67.382c-8.046-1.242-15.976-2.832-23.79-4.724l-37.098 57.558-59.128-24.492 14.468-66.944c-6.91-4.216-13.62-8.728-20.13-13.494l-56.342 39.006-45.254-45.254 39.006-56.342c-4.766-6.51-9.278-13.22-13.494-20.13l-66.944 14.468-24.492-59.128 57.558-37.1c-1.892-7.812-3.482-15.742-4.724-23.79l-67.384-12.252v-64l67.382-12.25c1.242-8.046 2.832-15.978 4.724-23.79l-57.558-37.1 24.492-59.128 66.944 14.468c4.216-6.91 8.728-13.618 13.494-20.13l-39.006-56.342 45.254-45.256 56.342 39.006c6.51-4.766 13.22-9.276 20.13-13.492l-14.468-66.944 59.128-24.492 37.102 57.558c7.81-1.892 15.742-3.482 23.788-4.724l12.252-67.384h64l12.252 67.382c8.044 1.242 15.976 2.832 23.79 4.724l37.1-57.558 59.128 24.492-14.468 66.944c6.91 4.216 13.62 8.726 20.13 13.492l56.342-39.006 45.256 45.256-39.006 56.342c4.766 6.512 9.276 13.22 13.492 20.13l66.944-14.468 24.492 59.13-57.558 37.1c1.892 7.812 3.482 15.742 4.724 23.79l67.382 12.25zM672 468.8c-76.878 0-139.2 62.322-139.2 139.2s62.32 139.2 139.2 139.2 139.2-62.322 139.2-139.2c0-76.878-62.32-139.2-139.2-139.2z" />
<glyph unicode="&#xe9ca;" glyph-name="earth" d="M512 960c-282.77 0-512-229.23-512-512s229.23-512 512-512 512 229.23 512 512-229.23 512-512 512zM512-0.002c-62.958 0-122.872 13.012-177.23 36.452l233.148 262.29c5.206 5.858 8.082 13.422 8.082 21.26v96c0 17.674-14.326 32-32 32-112.99 0-232.204 117.462-233.374 118.626-6 6.002-14.14 9.374-22.626 9.374h-128c-17.672 0-32-14.328-32-32v-192c0-12.122 6.848-23.202 17.69-28.622l110.31-55.156v-187.886c-116.052 80.956-192 215.432-192 367.664 0 68.714 15.49 133.806 43.138 192h116.862c8.488 0 16.626 3.372 22.628 9.372l128 128c6 6.002 9.372 14.14 9.372 22.628v77.412c40.562 12.074 83.518 18.588 128 18.588 70.406 0 137.004-16.26 196.282-45.2-4.144-3.502-8.176-7.164-12.046-11.036-36.266-36.264-56.236-84.478-56.236-135.764s19.97-99.5 56.236-135.764c36.434-36.432 85.218-56.264 135.634-56.26 3.166 0 6.342 0.080 9.518 0.236 13.814-51.802 38.752-186.656-8.404-372.334-0.444-1.744-0.696-3.488-0.842-5.224-81.324-83.080-194.7-134.656-320.142-134.656z" />
<glyph unicode="&#xea42;" glyph-name="circle-right" d="M512 960c-282.77 0-512-229.23-512-512s229.23-512 512-512 512 229.23 512 512-229.23 512-512 512zM512 32c-229.75 0-416 186.25-416 416s186.25 416 416 416 416-186.25 416-416-186.25-416-416-416zM354.744 253.256l90.512-90.512 285.254 285.256-285.256 285.254-90.508-90.508 194.744-194.746z" />
<glyph unicode="&#xf002;" glyph-name="search" horiz-adv-x="951" d="M658.286 475.428c0 141.143-114.857 256-256 256s-256-114.857-256-256 114.857-256 256-256 256 114.857 256 256zM950.857 0c0-40-33.143-73.143-73.143-73.143-19.429 0-38.286 8-51.429 21.714l-196 195.429c-66.857-46.286-146.857-70.857-228-70.857-222.286 0-402.286 180-402.286 402.286s180 402.286 402.286 402.286 402.286-180 402.286-402.286c0-81.143-24.571-161.143-70.857-228l196-196c13.143-13.143 21.143-32 21.143-51.429z" />
<glyph unicode="&#xf003;" glyph-name="mail" d="M950.857 91.428v438.857c-12-13.714-25.143-26.286-39.429-37.714-81.714-62.857-164-126.857-243.429-193.143-42.857-36-96-80-155.429-80h-1.143c-59.429 0-112.571 44-155.429 80-79.429 66.286-161.714 130.286-243.429 193.143-14.286 11.429-27.429 24-39.429 37.714v-438.857c0-9.714 8.571-18.286 18.286-18.286h841.143c9.714 0 18.286 8.571 18.286 18.286zM950.857 692c0 14.286 3.429 39.429-18.286 39.429h-841.143c-9.714 0-18.286-8.571-18.286-18.286 0-65.143 32.571-121.714 84-162.286 76.571-60 153.143-120.571 229.143-181.143 30.286-24.571 85.143-77.143 125.143-77.143h1.143c40 0 94.857 52.571 125.143 77.143 76 60.571 152.571 121.143 229.143 181.143 37.143 29.143 84 92.571 84 141.143zM1024 713.143v-621.714c0-50.286-41.143-91.429-91.429-91.429h-841.143c-50.286 0-91.429 41.143-91.429 91.429v621.714c0 50.286 41.143 91.429 91.429 91.429h841.143c50.286 0 91.429-41.143 91.429-91.429z" />
<glyph unicode="&#xf007;" glyph-name="user" horiz-adv-x="731" d="M731.429 151.428c0-83.429-54.857-151.429-121.714-151.429h-488c-66.857 0-121.714 68-121.714 151.429 0 150.286 37.143 324 186.857 324 46.286-45.143 109.143-73.143 178.857-73.143s132.571 28 178.857 73.143c149.714 0 186.857-173.714 186.857-324zM585.143 658.286c0-121.143-98.286-219.429-219.429-219.429s-219.429 98.286-219.429 219.429 98.286 219.429 219.429 219.429 219.429-98.286 219.429-219.429z" />
<glyph unicode="&#xf013;" glyph-name="cog" horiz-adv-x="878" d="M585.143 438.857c0 80.571-65.714 146.286-146.286 146.286s-146.286-65.714-146.286-146.286 65.714-146.286 146.286-146.286 146.286 65.714 146.286 146.286zM877.714 501.143v-126.857c0-8.571-6.857-18.857-16-20.571l-105.714-16c-6.286-18.286-13.143-35.429-22.286-52 19.429-28 40-53.143 61.143-78.857 3.429-4 5.714-9.143 5.714-14.286s-1.714-9.143-5.143-13.143c-13.714-18.286-90.857-102.286-110.286-102.286-5.143 0-10.286 2.286-14.857 5.143l-78.857 61.714c-16.571-8.571-34.286-16-52-21.714-4-34.857-7.429-72-16.571-106.286-2.286-9.143-10.286-16-20.571-16h-126.857c-10.286 0-19.429 7.429-20.571 17.143l-16 105.143c-17.714 5.714-34.857 12.571-51.429 21.143l-80.571-61.143c-4-3.429-9.143-5.143-14.286-5.143s-10.286 2.286-14.286 6.286c-30.286 27.429-70.286 62.857-94.286 96-2.857 4-4 8.571-4 13.143 0 5.143 1.714 9.143 4.571 13.143 19.429 26.286 40.571 51.429 60 78.286-9.714 18.286-17.714 37.143-23.429 56.571l-104.571 15.429c-9.714 1.714-16.571 10.857-16.571 20.571v126.857c0 8.571 6.857 18.857 15.429 20.571l106.286 16c5.714 18.286 13.143 35.429 22.286 52.571-19.429 27.429-40 53.143-61.143 78.857-3.429 4-5.714 8.571-5.714 13.714s2.286 9.143 5.143 13.143c13.714 18.857 90.857 102.286 110.286 102.286 5.143 0 10.286-2.286 14.857-5.714l78.857-61.143c16.571 8.571 34.286 16 52 21.714 4 34.857 7.429 72 16.571 106.286 2.286 9.143 10.286 16 20.571 16h126.857c10.286 0 19.429-7.429 20.571-17.143l16-105.143c17.714-5.714 34.857-12.571 51.429-21.143l81.143 61.143c3.429 3.429 8.571 5.143 13.714 5.143s10.286-2.286 14.286-5.714c30.286-28 70.286-63.429 94.286-97.143 2.857-3.429 4-8 4-12.571 0-5.143-1.714-9.143-4.571-13.143-19.429-26.286-40.571-51.429-60-78.286 9.714-18.286 17.714-37.143 23.429-56l104.571-16c9.714-1.714 16.571-10.857 16.571-20.571z" />
<glyph unicode="&#xf054;" glyph-name="chevron-right" horiz-adv-x="695" d="M632.571 449.714l-424-424c-14.286-14.286-37.143-14.286-51.429 0l-94.857 94.857c-14.286 14.286-14.286 37.143 0 51.429l303.429 303.429-303.429 303.429c-14.286 14.286-14.286 37.143 0 51.429l94.857 94.857c14.286 14.286 37.143 14.286 51.429 0l424-424c14.286-14.286 14.286-37.143 0-51.429z" />
<glyph unicode="&#xf099;" glyph-name="twitter" horiz-adv-x="951" d="M925.714 717.714c-25.143-36.571-56.571-69.143-92.571-95.429 0.571-8 0.571-16 0.571-24 0-244-185.714-525.143-525.143-525.143-104.571 0-201.714 30.286-283.429 82.857 14.857-1.714 29.143-2.286 44.571-2.286 86.286 0 165.714 29.143 229.143 78.857-81.143 1.714-149.143 54.857-172.571 128 11.429-1.714 22.857-2.857 34.857-2.857 16.571 0 33.143 2.286 48.571 6.286-84.571 17.143-148 91.429-148 181.143v2.286c24.571-13.714 53.143-22.286 83.429-23.429-49.714 33.143-82.286 89.714-82.286 153.714 0 34.286 9.143 65.714 25.143 93.143 90.857-112 227.429-185.143 380.571-193.143-2.857 13.714-4.571 28-4.571 42.286 0 101.714 82.286 184.571 184.571 184.571 53.143 0 101.143-22.286 134.857-58.286 41.714 8 81.714 23.429 117.143 44.571-13.714-42.857-42.857-78.857-81.143-101.714 37.143 4 73.143 14.286 106.286 28.571z" />
<glyph unicode="&#xf09a;" glyph-name="facebook" horiz-adv-x="602" d="M548 944v-150.857h-89.714c-70.286 0-83.429-33.714-83.429-82.286v-108h167.429l-22.286-169.143h-145.143v-433.714h-174.857v433.714h-145.714v169.143h145.714v124.571c0 144.571 88.571 223.429 217.714 223.429 61.714 0 114.857-4.571 130.286-6.857z" />
<glyph unicode="&#xf0c9;" glyph-name="navicon" horiz-adv-x="878" d="M877.714 182.857v-73.143c0-20-16.571-36.571-36.571-36.571h-804.571c-20 0-36.571 16.571-36.571 36.571v73.143c0 20 16.571 36.571 36.571 36.571h804.571c20 0 36.571-16.571 36.571-36.571zM877.714 475.428v-73.143c0-20-16.571-36.571-36.571-36.571h-804.571c-20 0-36.571 16.571-36.571 36.571v73.143c0 20 16.571 36.571 36.571 36.571h804.571c20 0 36.571-16.571 36.571-36.571zM877.714 768v-73.143c0-20-16.571-36.571-36.571-36.571h-804.571c-20 0-36.571 16.571-36.571 36.571v73.143c0 20 16.571 36.571 36.571 36.571h804.571c20 0 36.571-16.571 36.571-36.571z" />
<glyph unicode="&#xf0d7;" glyph-name="caret-down" horiz-adv-x="585" d="M585.143 548.571c0-9.714-4-18.857-10.857-25.714l-256-256c-6.857-6.857-16-10.857-25.714-10.857s-18.857 4-25.714 10.857l-256 256c-6.857 6.857-10.857 16-10.857 25.714 0 20 16.571 36.571 36.571 36.571h512c20 0 36.571-16.571 36.571-36.571z" />
<glyph unicode="&#xf0e0;" glyph-name="envelope" d="M1024 545.143v-453.714c0-50.286-41.143-91.429-91.429-91.429h-841.143c-50.286 0-91.429 41.143-91.429 91.429v453.714c17.143-18.857 36.571-35.429 57.714-49.714 94.857-64.571 190.857-129.143 284-197.143 48-35.429 107.429-78.857 169.714-78.857h1.143c62.286 0 121.714 43.429 169.714 78.857 93.143 67.429 189.143 132.571 284.571 197.143 20.571 14.286 40 30.857 57.143 49.714zM1024 713.143c0-64-47.429-121.714-97.714-156.571-89.143-61.714-178.857-123.429-267.429-185.714-37.143-25.714-100-78.286-146.286-78.286h-1.143c-46.286 0-109.143 52.571-146.286 78.286-88.571 62.286-178.286 124-266.857 185.714-40.571 27.429-98.286 92-98.286 144 0 56 30.286 104 91.429 104h841.143c49.714 0 91.429-41.143 91.429-91.429z" />
<glyph unicode="&#xf0e1;" glyph-name="linkedin" horiz-adv-x="878" d="M199.429 593.714v-566.286h-188.571v566.286h188.571zM211.429 768.571c0.571-54.286-40.571-97.714-106.286-97.714v0h-1.143c-63.429 0-104 43.429-104 97.714 0 55.429 42.286 97.714 106.286 97.714 64.571 0 104.571-42.286 105.143-97.714zM877.714 352v-324.571h-188v302.857c0 76-27.429 128-95.429 128-52 0-82.857-34.857-96.571-68.571-4.571-12.571-6.286-29.143-6.286-46.286v-316h-188c2.286 513.143 0 566.286 0 566.286h188v-82.286h-1.143c24.571 38.857 69.143 95.429 170.857 95.429 124 0 216.571-81.143 216.571-254.857z" />
<glyph unicode="&#xf10c;" glyph-name="circle-o" horiz-adv-x="878" d="M438.857 749.714c-171.429 0-310.857-139.429-310.857-310.857s139.429-310.857 310.857-310.857 310.857 139.429 310.857 310.857-139.429 310.857-310.857 310.857zM877.714 438.857c0-242.286-196.571-438.857-438.857-438.857s-438.857 196.571-438.857 438.857 196.571 438.857 438.857 438.857v0c242.286 0 438.857-196.571 438.857-438.857z" />
<glyph unicode="&#xf111;" glyph-name="circle" horiz-adv-x="878" d="M877.714 438.857c0-242.286-196.571-438.857-438.857-438.857s-438.857 196.571-438.857 438.857 196.571 438.857 438.857 438.857 438.857-196.571 438.857-438.857z" />
<glyph unicode="&#xf139;" glyph-name="chevron-circle-up" horiz-adv-x="878" d="M665.714 300l58.286 58.286c14.286 14.286 14.286 37.143 0 51.429l-259.429 259.429c-14.286 14.286-37.143 14.286-51.429 0l-259.429-259.429c-14.286-14.286-14.286-37.143 0-51.429l58.286-58.286c14.286-14.286 37.143-14.286 51.429 0l175.429 175.429 175.429-175.429c14.286-14.286 37.143-14.286 51.429 0zM877.714 438.857c0-242.286-196.571-438.857-438.857-438.857s-438.857 196.571-438.857 438.857 196.571 438.857 438.857 438.857 438.857-196.571 438.857-438.857z" />
</font>
</defs>
</svg>
